<?xml version="1.0" encoding="utf-8"?> <!-- Generator: IcoMoon.io --> <!DOCTYPE svg PUBLIC "-//W3C//DTD SVG 1.1//EN" "http://www.w3.org/Graphics/SVG/1.1/DTD/svg11.dtd"> <svg width="500.00000000000006" height="500" viewBox="0 0 500 500" xmlns="http://www.w3.org/2000/svg" xmlns:xlink="http://www.w3.org/1999/xlink" fill="#919191"><path d="M 375.00,395.00L 50.00,395.00 l0.00-225.00 l 64.875,0.00 c0.00,0.00, 17.225-22.40, 54.25-50.00L 25.00,120.00 c-13.80,0.00-25.00,11.20-25.00,25.00l0.00,275.00 c0.00,13.825, 11.20,25.00, 25.00,25.00l 375.00,0.00 c 13.825,0.00, 25.00-11.175, 25.00-25.00l0.00-93.65 l-50.00,41.125L 375.00,395.00 z M 334.05,221.25l0.00,88.75 L 500.00,179.975L 334.05,55.00l0.00,78.25 C 132.50,133.275, 132.50,332.50, 132.50,332.50C 189.55,238.80, 224.65,221.25, 334.05,221.25z" ></path></svg>